<?xml version="1.0" encoding="utf-8"?>
<!-- Generator: Adobe Illustrator 22.0.0, SVG Export Plug-In . SVG Version: 6.00 Build 0)  -->
<svg version="1.1" id="Layer_1" xmlns="http://www.w3.org/2000/svg" xmlns:xlink="http://www.w3.org/1999/xlink" x="0px" y="0px"
	 width="323.5px" height="349.5px" viewBox="0 0 323.5 349.5" style="enable-background:new 0 0 323.5 349.5;" xml:space="preserve"
	>
<style type="text/css">
	.st0{fill:#2F3542;}
	.st1{fill:#FFFFFF;}
	.st2{fill:#FEFEFF;}
	.st3{fill:#FDFEFF;}
	.st4{fill:#FCFDFF;}
	.st5{fill:#FBFDFF;}
	.st6{fill:#FAFCFF;}
	.st7{fill:#F8FCFF;}
	.st8{fill:#F7FBFF;}
	.st9{fill:#F6FBFF;}
	.st10{fill:#F5FAFF;}
	.st11{fill:#F4FAFF;}
	.st12{fill:#F3F9FF;}
	.st13{fill:#3B434F;}
	.st14{fill:#92A1B7;}
</style>
<path class="st0" d="M75.3,31.6L53.6,9.9c1.5-2.5,1.2-5.8-0.9-8c-2.5-2.5-6.7-2.5-9.2,0c-2.5,2.5-2.5,6.7,0,9.2
	c2.2,2.2,5.5,2.5,8,0.9l21.7,21.7c0.6,0.6,1.5,0.6,2.1,0S75.9,32.2,75.3,31.6z"/>
<g id="arm_1_">
	<path class="st1" d="M104.2,215.7c-4.1-8.6-12.5-13.8-21.4-14.3l27.7,27.7L104.2,215.7z"/>
	<path class="st2" d="M110.6,229.2l-27.7-27.7c-2.7-0.1-5.5,0.2-8.2,0.9l44.1,44.1L110.6,229.2z"/>
	<path class="st3" d="M118.8,246.5l-44.1-44.1c-1.3,0.4-2.5,0.8-3.7,1.4l0,0c-0.9,0.4-1.8,0.9-2.6,1.4l58.6,58.6L118.8,246.5z"/>
	<path class="st4" d="M127,263.9l-58.6-58.6c-1.9,1.2-3.5,2.6-5,4.1l71.8,71.8L127,263.9z"/>
	<path class="st5" d="M140.3,292l-5.1-10.8l-71.8-71.8c-1.5,1.6-2.8,3.4-3.8,5.4l82.1,82.1C141.4,295.2,141,293.6,140.3,292z"/>
	<path class="st6" d="M141.6,296.8l-82.1-82.1c-1.1,2.1-1.9,4.4-2.4,6.8l83.2,83.2C141.4,302.3,141.9,299.5,141.6,296.8z"/>
	<path class="st7" d="M140.3,304.7l-83.2-83.2c-0.6,2.9-0.7,6-0.2,9l79.4,79.4C138.1,308.5,139.4,306.7,140.3,304.7z"/>
	<path class="st8" d="M133.1,312c1.2-0.6,2.3-1.3,3.3-2.1L57,230.5c0.4,2.2,1,4.5,2.1,6.6l4.1,8.7l67.4,67.4L133.1,312z"/>
	<polygon class="st9" points="130.6,313.2 63.2,245.8 71.3,263.2 124.3,316.2 	"/>
	<polygon class="st10" points="124.3,316.2 71.3,263.2 79.5,280.5 118.1,319.1 	"/>
	<path class="st11" d="M115,320.6l3.1-1.5l-38.6-38.6l8.2,17.4l23.8,23.8C112.7,321.5,113.9,321.1,115,320.6z"/>
	<path class="st12" d="M111.6,321.7l-23.8-23.8l7.3,15.5c0.4,0.9,0.9,1.7,1.4,2.4l3.3,3.3C103.2,321.5,107.4,322.5,111.6,321.7z"/>
</g>
<g id="arm">
	<path class="st1" d="M188.4,131.6l13.4,6.4l-27.7-27.7C174.6,119.1,179.8,127.5,188.4,131.6z"/>
	<path class="st2" d="M174.1,110.2l27.7,27.7l17.4,8.2L175.1,102C174.3,104.7,174,107.5,174.1,110.2z"/>
	<path class="st3" d="M176.5,98.3L176.5,98.3c-0.6,1.2-1,2.5-1.4,3.7l44.1,44.1l17.4,8.2l-58.6-58.6
		C177.4,96.5,176.9,97.4,176.5,98.3z"/>
	<path class="st4" d="M177.9,95.7l58.6,58.6l17.4,8.2l-71.8-71.8C180.5,92.2,179.1,93.8,177.9,95.7z"/>
	<path class="st5" d="M182.1,90.7l71.8,71.8l10.8,5.1c1.5,0.7,3.2,1.2,4.8,1.3l-82.1-82.1C185.5,87.9,183.7,89.2,182.1,90.7z"/>
	<path class="st6" d="M187.4,86.9l82.1,82.1c2.7,0.3,5.4-0.2,7.9-1.3l-83.2-83.2C191.8,85,189.5,85.8,187.4,86.9z"/>
	<path class="st7" d="M194.2,84.5l83.2,83.2c2-0.9,3.8-2.2,5.2-4l-79.4-79.4C200.1,83.8,197.1,83.9,194.2,84.5z"/>
	<path class="st8" d="M209.8,86.4c-2.1-1-4.4-1.7-6.6-2.1l79.4,79.4c0.8-1,1.5-2,2.1-3.3l1.2-2.6l-67.4-67.4L209.8,86.4z"/>
	<polygon class="st9" points="218.5,90.5 285.9,157.9 288.8,151.7 235.8,98.7 	"/>
	<polygon class="st10" points="235.8,98.7 288.8,151.7 291.8,145.5 253.2,106.9 	"/>
	<path class="st11" d="M253.2,106.9l38.6,38.6l1.5-3.1c0.5-1.1,0.9-2.3,1.1-3.5l-23.8-23.8L253.2,106.9z"/>
	<path class="st12" d="M286.1,122.4l-15.5-7.3l23.8,23.8c0.8-4.1-0.2-8.4-2.6-11.7l-3.3-3.3C287.7,123.3,286.9,122.8,286.1,122.4z"
		/>
</g>
<g id="body">
	<path class="st1" d="M71.5,225.7l83.4,83.4c6.6,6.6,16.6,7.6,24.3,3.1L54.1,187.2C55,201.2,60.8,215,71.5,225.7z"/>
	<path class="st2" d="M54.1,187.2l125.1,125.1c1.4-0.8,2.8-1.9,4-3.1l7-7L56,167.9C54.3,174.2,53.7,180.7,54.1,187.2z"/>
	<path class="st3" d="M56,167.9l134.2,134.2l10.6-10.6L62.1,152.9C59.4,157.6,57.3,162.7,56,167.9z"/>
	<path class="st4" d="M62.1,152.9l138.6,138.6l10.6-10.6l-140-140C67.7,144.6,64.6,148.6,62.1,152.9z"/>
	<path class="st5" d="M71.5,140.9c0,0-0.1,0.1-0.1,0.1l140,140l10.6-10.6l-140-140L71.5,140.9z"/>
	
		<rect x="149.7" y="96.1" transform="matrix(0.7071 -0.7071 0.7071 0.7071 -91.9002 168.3111)" class="st6" width="15" height="198"/>
	<rect x="160.3" y="85.5" transform="matrix(0.7071 -0.7071 0.7071 0.7071 -81.32 172.6935)" class="st7" width="15" height="198"/>
	
		<rect x="170.9" y="74.9" transform="matrix(0.7071 -0.7071 0.7071 0.7071 -70.7397 177.0759)" class="st8" width="15" height="198"/>
	<path class="st9" d="M113.9,98.4l-0.2,0.2l140,140l10.6-10.6L125.5,89.3C121.4,91.8,117.5,94.8,113.9,98.4z"/>
	<path class="st10" d="M125.5,89.3l138.7,138.7l10.6-10.6L140.4,83.1C135.2,84.5,130.2,86.6,125.5,89.3z"/>
	<path class="st11" d="M140.4,83.1l134.4,134.4l7.3-7.3c1.1-1.1,2.1-2.3,2.9-3.6L159.5,81C153.1,80.7,146.6,81.4,140.4,83.1z"/>
	<path class="st12" d="M159.5,81L285,207.5c4-6.5,5-16.4-0.2-23.4l-93.5-92.5C181.4,83.9,171.6,81.7,159.5,81z"/>
</g>
<ellipse id="connector" transform="matrix(0.7071 -0.7071 0.7071 0.7071 -67.9741 124.9581)" class="st12" cx="116.9" cy="144.5" rx="90" ry="38.1"/>
<g id="helmet_gradient">
	<path class="st1" d="M1.2,117.5c1.9,13,7.6,25.1,17.2,34.7c0.4,0.4,0.9,0.9,1.3,1.3c0.3,0.3,0.5,0.6,0.8,0.8l22.2,22.2
		c8.4,8.4,19.5,12.8,30.6,13L1.2,117.5z"/>
	<path class="st2" d="M88.5,187.3L0.9,99.6c-0.7,6-0.6,12,0.3,17.8l72.1,72.1C78.4,189.7,83.6,188.9,88.5,187.3z"/>
	<path class="st3" d="M100.2,181.4L4,85.2C2.5,90,1.5,94.8,0.9,99.6l87.6,87.6C92.6,185.9,96.6,183.9,100.2,181.4z"/>
	<path class="st4" d="M106,176.5l3.4-3.4L9.2,72.8C7.1,76.8,5.4,81,4,85.2l96.2,96.2C102.3,179.9,104.2,178.3,106,176.5z"/>
	<path class="st5" d="M118.2,164.3L15.9,62c-2.6,3.5-4.8,7.1-6.7,10.8L109.5,173L118.2,164.3z"/>
	<path class="st6" d="M127,155.5L24,52.5c-3,3-5.7,6.2-8.1,9.5l102.3,102.3L127,155.5z"/>
	<path class="st7" d="M135.8,146.7L33.5,44.4c-3.2,2.4-6.3,5.1-9.3,8c0,0-0.1,0.1-0.1,0.1l103,103L135.8,146.7z"/>
	<path class="st8" d="M144.6,137.9L44.2,37.6c-3.7,1.9-7.3,4.2-10.8,6.8l102.3,102.3L144.6,137.9z"/>
	<path class="st9" d="M148.3,134.2c1.7-1.7,3.3-3.6,4.7-5.5L56.6,32.4c-4.2,1.4-8.3,3.1-12.4,5.2l100.4,100.4L148.3,134.2z"/>
	<path class="st10" d="M158.9,117.1l-88-88c-4.8,0.6-9.6,1.6-14.4,3.2l96.4,96.4C155.5,125.1,157.5,121.2,158.9,117.1z"/>
	<path class="st11" d="M161.3,102L88.6,29.3c-5.8-0.8-11.7-0.8-17.7-0.1l88,88C160.6,112.3,161.4,107.1,161.3,102z"/>
	<path class="st12" d="M152,75.1l-33-33c-8.8-7.1-19.3-11.3-30.4-12.8l72.7,72.7C161.2,92.5,158.1,83,152,75.1z"/>
</g>
<path class="st1" d="M136.4,129.2l-34.3,34.3c-15.6,15.6-41,15.6-56.6,0l-7.3-7.3c-15.6-15.6-15.6-41,0-56.6l34.3-34.3
	c15.6-15.6,41-15.6,56.6,0l7.3,7.3C151.9,88.2,151.9,113.7,136.4,129.2z"/>
<path id="lense" class="st0" d="M133.2,125l-35.6,35.6c-13.2,13.2-34.9,13.2-48.1,0l-8.4-8.4c-13.2-13.2-13.2-34.9,0-48.1l35.6-35.6
	c13.2-13.2,34.9-13.2,48.1,0l8.4,8.4C146.4,90.1,146.4,111.8,133.2,125z"/>
<path class="st1" d="M145.1,67.7L145.1,67.7c-1.5,1.5-3.8,1.5-5.3,0l-14.3-14.3c-1.5-1.5-1.5-3.8,0-5.3l0,0c1.5-1.5,3.8-1.5,5.3,0
	l14.3,14.3C146.6,63.9,146.6,66.2,145.1,67.7z"/>
<g id="glare">
	<path class="st13" d="M82.7,63.8c-2.2,1.4-4.3,3-6.3,4.9L41,104.1c-13.2,13.2-13.2,34.9,0,48.1l8.4,8.4c12,12,30.9,13.1,44.2,3.3
		C111,106.2,88.5,80.9,82.7,63.8z"/>
</g>
<path class="st1" d="M39.5,173.3L39.5,173.3c-1.5,1.5-3.8,1.5-5.3,0l-14.3-14.3c-1.5-1.5-1.5-3.8,0-5.3h0c1.5-1.5,3.8-1.5,5.3,0
	L39.5,168C40.9,169.5,40.9,171.9,39.5,173.3z"/>
<path class="st1" d="M48.6,94.8l-1.4-1.4c-1.9-1.9-1.9-5.1,0-7.1l12.5-12.5c1.9-1.9,5.1-1.9,7.1,0l1.4,1.4c1.9,1.9,1.9,5.1,0,7.1
	L55.7,94.8C53.7,96.7,50.6,96.7,48.6,94.8z"/>
<g id="gradient_leg_1_">
	<path class="st1" d="M215.6,337.5l-48.9-48.9c1.1,6.2,4,12.1,8.7,16.9l23.3,23.3C203.5,333.5,209.5,336.4,215.6,337.5z"/>
	<path class="st2" d="M224.1,337.8l-57.7-57.7c-0.3,2.8-0.2,5.7,0.3,8.5l48.9,48.9C218.4,338,221.3,338.1,224.1,337.8z"/>
	<path class="st3" d="M230.9,336.4l-63-63c-0.7,2.2-1.2,4.5-1.4,6.7l57.7,57.7C226.4,337.6,228.7,337.1,230.9,336.4z"/>
	<path class="st4" d="M236.5,333.9l-66.2-66.2c-1,1.8-1.9,3.7-2.5,5.7l63,63C232.8,335.7,234.7,334.9,236.5,333.9z"/>
	<path class="st5" d="M241.4,330.5l-67.6-67.6c-1.3,1.5-2.4,3.1-3.3,4.8l66.2,66.2C238.2,332.9,239.8,331.8,241.4,330.5z"/>
	<path class="st6" d="M243.3,328.8l2.2-2.2l-67.8-67.8l-2.2,2.2c-0.6,0.6-1.2,1.3-1.8,1.9l67.6,67.6
		C242,330,242.7,329.4,243.3,328.8z"/>
	<path class="st7" d="M247.9,324.2c0.6-0.6,1.1-1.2,1.7-1.8l-67.7-67.7c-0.6,0.5-1.2,1.1-1.8,1.7l-2.3,2.3l67.8,67.8L247.9,324.2z"
		/>
	<path class="st8" d="M252.9,317.6l-66.2-66.2c-1.7,1-3.3,2.1-4.8,3.4l67.7,67.7C250.8,320.9,251.9,319.3,252.9,317.6z"/>
	<path class="st9" d="M255.4,312l-63.1-63.1c-1.9,0.6-3.8,1.5-5.6,2.5l66.2,66.2C253.9,315.8,254.8,313.9,255.4,312z"/>
	<path class="st10" d="M256.9,305.2L199,247.4c-2.3,0.2-4.5,0.7-6.7,1.4l63.1,63.1C256.2,309.8,256.6,307.5,256.9,305.2z"/>
	<path class="st11" d="M256.6,296.8l-49.2-49.2c-2.8-0.5-5.6-0.5-8.4-0.2l57.9,57.9C257.2,302.4,257.1,299.6,256.6,296.8z"/>
	<path class="st12" d="M250.1,282.1l-27.9-27.9c-4.4-3.5-9.5-5.7-14.7-6.6l49.2,49.2C255.8,291.6,253.6,286.5,250.1,282.1z"/>
</g>
<g id="gradient_leg">
	<path class="st1" d="M230.2,250.8l11.6,11.6l11.6,11.6c4.8,4.8,10.7,7.7,16.9,8.7l-48.9-48.9C222.5,240.1,225.4,246,230.2,250.8z"
		/>
	<path class="st2" d="M221.5,233.9l48.9,48.9c2.8,0.5,5.7,0.6,8.5,0.3l-57.7-57.7C220.9,228.3,221,231.1,221.5,233.9z"/>
	<path class="st3" d="M221.2,225.4l57.7,57.7c2.3-0.2,4.5-0.7,6.7-1.4l-63-63C221.9,220.9,221.4,223.1,221.2,225.4z"/>
	<path class="st4" d="M222.6,218.7l63,63c2-0.6,3.9-1.5,5.7-2.5L225.1,213C224,214.8,223.2,216.7,222.6,218.7z"/>
	<path class="st5" d="M225.1,213l66.2,66.2c1.7-0.9,3.3-2.1,4.8-3.3l-67.6-67.6C227.1,209.7,226,211.3,225.1,213z"/>
	<path class="st6" d="M230.2,206.2c-0.6,0.6-1.2,1.3-1.8,1.9l67.6,67.6c0.7-0.6,1.3-1.2,1.9-1.8l2.2-2.2L232.4,204L230.2,206.2z"/>
	<path class="st7" d="M234.8,201.7l-2.3,2.3l67.8,67.8l2.3-2.3c0.6-0.6,1.1-1.2,1.7-1.8L236.6,200
		C236,200.6,235.3,201.1,234.8,201.7z"/>
	<path class="st8" d="M236.6,200l67.7,67.7c1.3-1.5,2.4-3.1,3.4-4.8l-66.2-66.2C239.7,197.6,238.1,198.7,236.6,200z"/>
	<path class="st9" d="M241.4,196.7l66.2,66.2c1-1.8,1.9-3.7,2.5-5.6L247,194.1C245.1,194.8,243.2,195.6,241.4,196.7z"/>
	<path class="st10" d="M247,194.1l63.1,63.1c0.7-2.2,1.2-4.4,1.4-6.7l-57.9-57.9C251.5,192.9,249.2,193.4,247,194.1z"/>
	<path class="st11" d="M253.7,192.7l57.9,57.9c0.3-2.8,0.2-5.6-0.2-8.4l-49.2-49.2C259.4,192.5,256.5,192.4,253.7,192.7z"/>
	<path class="st12" d="M262.1,192.9l49.2,49.2c-0.9-5.3-3-10.4-6.6-14.7l-27.9-27.9C272.5,196,267.4,193.8,262.1,192.9z"/>
</g>
<path id="foot_1_" class="st12" d="M320.1,253.5L282,291.6c-3.9,3.9-10.3,3.9-14.1,0l-2.4-2.4c-9.1-9.1-9.1-24.1,0-33.2l19-19
	c9.1-9.1,24.1-9.1,33.2,0l2.4,2.4C324,243.3,324,249.6,320.1,253.5z"/>
<path id="foot" class="st12" d="M265.7,308L227.6,346c-3.9,3.9-10.3,3.9-14.1,0l-2.4-2.4c-9.1-9.1-9.1-24.1,0-33.2l19-19
	c9.1-9.1,24.1-9.1,33.2,0l2.4,2.4C269.6,297.7,269.6,304.1,265.7,308z"/>
<path class="st13" d="M184.4,171.2c0.1,0.2,0,0.3-0.2,0.2l-0.4-0.2c0,0-0.6-0.4-1.4-0.7c-0.2-0.1-0.5-0.3-0.8-0.3
	c-0.4,0-0.8,0.2-0.9,0.6c-0.2,0.3-0.1,0.7,0.1,1c0.2,0.2,0.5,0.4,0.7,0.6c0.7,0.6,3.8,2.7,4.6,2.9c0.8,0.3,1.8-0.1,2-0.9
	c0.3-0.8-0.2-1.7-0.5-2.5c-0.4-0.9-2.8-6.2-2.8-6.2c-0.2-0.5-0.1-0.6,0.3-0.2c0,0,3.7,3.8,5.4,5.5c0.6,0.6,1.8,1.7,2.6,2.2
	c0.5,0.3,1.1,0.5,1.7,0.4c0.6-0.1,1.1-0.4,1.5-0.8c0.1-0.2,0.3-0.5,0.4-0.8c0.1-0.4,0.1-0.8,0.1-1.2c-0.1-0.9-0.4-1.9-0.7-2.8
	c-0.6-2-3-7.8-3-7.8c-0.2-0.5-0.1-0.6,0.3-0.2c0,0,6.6,7.1,9.3,9.7c0.6,0.6,1.4,1.2,2.3,1.5c0.8,0.3,1.7,0.4,2.5,0.1
	c0.9-0.3,1.5-1.1,1.8-2c0.2-0.7,0.1-1.4,0-2.1c-0.2-1-0.6-1.9-1-2.8c-0.8-1.9-1.8-3.7-2.7-5.5c-1-1.8-10.4-18.6-11.3-19.9
	c-0.1-0.2-0.2-0.3-0.3-0.4c-0.3-0.2-0.7-0.3-1-0.2c-0.6,0.2-0.9,0.9-0.7,1.5c0.2,0.6,7.3,17.8,7.3,17.8c0.2,0.5,0.1,0.6-0.3,0.2
	c0,0-4.2-4.2-7.7-7.7c-1.9-1.9-3.9-2-5.4-0.9c-0.7,0.5-1.2,1.3-1.3,2.1c-0.2,0.9,0,1.8,0.2,2.7c0.4,1.2,5.1,10.8,5.1,10.8
	c0.2,0.5,0.1,0.6-0.3,0.2c0,0-3.2-3-4-3.7c-1.2-1-3.3-2.6-4.8-1.2c-1.4,1.3-0.3,3.6,0.4,5c0.5,0.9,3,5.8,3,5.8L184.4,171.2z"/>
<path id="hand" class="st12" d="M252.2,168.8l10.3,4.9c7.5,3.5,16.4,0.3,20-7.2l11.2-23.7c3.5-7.5,0.3-16.4-7.2-20l-10.3-4.9
	c-7.5-3.5-16.4-0.3-20,7.2L245,148.8C241.5,156.2,244.7,165.2,252.2,168.8z"/>
<path id="hand_1_" class="st12" d="M141.4,279.5l4.9,10.3c3.5,7.5,0.3,16.4-7.2,20L115.5,321c-7.5,3.5-16.4,0.3-20-7.2l-4.9-10.3
	c-3.5-7.5-0.3-16.4,7.2-20l23.7-11.2C128.9,268.9,137.9,272.1,141.4,279.5z"/>
<g id="outline">
	<path class="st14" d="M53.4,170.2c0.3,0.2,0.5,0.3,0.8,0.4c0.3,0.2,0.6,0.4,0.9,0.5c15.2,7.9,34.5,5.5,47.3-7.3l34.3-34.3
		c12.8-12.8,15.2-32.1,7.3-47.4c-0.2-0.3-0.3-0.6-0.5-0.9c-0.1-0.1-0.1-0.3-0.2-0.4c-0.2-0.3-0.3-0.5-0.5-0.8
		c-1.7-2.7-3.7-5.3-6-7.7l-7.3-7.3c-15.8-15.8-41.5-15.8-57.3,0l-7.2,7.2c-1.9-0.6-4.1-0.2-5.6,1.3L46.9,86
		c-1.5,1.5-1.9,3.7-1.3,5.6l-7.7,7.7C22,115,22,140.7,37.8,156.5l7.3,7.3c2.3,2.3,4.8,4.3,7.5,5.9C52.9,169.9,53.2,170.1,53.4,170.2
		z M47.6,86.7l12.5-12.5c1.1-1.1,2.6-1.5,4-1.2c0.4,0.1,0.7,0.2,1.1,0.4c0.5,0.2,0.9,0.5,1.3,0.9l1.4,1.4c1.8,1.8,1.8,4.6,0,6.4
		L55.3,94.4c-1.8,1.8-4.6,1.8-6.4,0l-1.4-1.4c-0.4-0.4-0.7-0.8-0.9-1.3c-0.2-0.3-0.3-0.7-0.4-1.1C46.1,89.3,46.5,87.8,47.6,86.7z
		 M45.9,163.2l-7.3-7.3c-15.4-15.4-15.4-40.5,0-55.9l7.4-7.4c0.2,0.4,0.5,0.9,0.9,1.2l1.4,1.4c2.1,2.1,5.6,2.1,7.8,0l12.5-12.5
		c2.1-2.1,2.1-5.6,0-7.8l-1.4-1.4c-0.4-0.4-0.8-0.7-1.2-0.9l6.9-6.9c15.4-15.4,40.5-15.4,55.9,0L136,73c2.3,2.3,4.2,4.8,5.8,7.4
		c0.2,0.3,0.3,0.5,0.5,0.8c0,0.1,0.1,0.2,0.1,0.2c0.2,0.3,0.4,0.6,0.5,0.9c7.9,14.9,5.6,33.9-6.9,46.5l-34.3,34.3
		c-12.5,12.5-31.4,14.9-46.3,7c-0.3-0.2-0.6-0.4-0.9-0.5c-0.2-0.1-0.4-0.2-0.6-0.3c-0.3-0.2-0.5-0.3-0.8-0.5
		C50.5,167.2,48.1,165.4,45.9,163.2z"/>
	<path class="st14" d="M320.5,239l-2.4-2.4c-3-3-6.6-5-10.5-6.1c-1.3-2.1-2.8-4.1-4.6-5.9l-17.2-17.2c5.2-8.1,4.3-19.1-2.8-26.2
		l-7.2-7.1c1.5-0.7,3-1.7,4.2-3c1.2-1.2,2.3-2.7,3-4.3l11.2-23.7c1.8-3.7,2-7.9,0.6-11.8c-0.9-2.6-2.4-4.8-4.4-6.5
		c-1.2-1.1-2.5-2-4-2.7l-76.3-36c-6.1-2.9-13.1-3.2-19.5-0.9c-1.7,0.6-3.3,1.4-4.9,2.4c-0.2-0.1-0.5-0.3-0.7-0.4
		c-0.9-2.5-2.2-4.6-4-6.4c-5.8-5.8-15.5-6.9-27.2-4.1c-1.5-2.1-3.1-4.1-5-6l-2.9-2.9c1.3-1.7,1.2-4.1-0.3-5.6l-14.3-14.3
		c-1.5-1.5-4-1.6-5.6-0.3c-0.4-0.4-0.8-0.9-1.2-1.3C98.2,20.1,53.1,22.7,23.8,52C-5.5,81.3-8.1,126.4,18,152.5
		c0.4,0.4,0.9,0.8,1.3,1.2c-1.3,1.7-1.2,4.1,0.3,5.6l14.3,14.3c1.5,1.5,3.9,1.6,5.6,0.3l2.9,2.9c2,2,4.1,3.7,6.3,5.3
		c-2.6,11.4-1.4,20.8,4.2,26.4c2,2,4.4,3.4,7.2,4.3c-4.5,7.1-5.3,16.3-1.5,24.5l36,76.3c0.7,1.5,1.7,2.9,2.8,4.1
		c4.4,5.1,11.9,6.8,18.3,3.8l23.7-11.2c1.7-0.8,3.1-1.8,4.3-3c1.4-1.4,2.4-3,3.2-4.7l7.3,7.3c7.4,7.4,18.9,8.1,27.1,2.2l17.1,17.1
		c1.9,1.9,4,3.6,6.3,4.9c1.1,3.7,3.1,7.1,6,10l2.4,2.4c4.1,4.1,10.8,4.1,14.8,0l38.1-38.1c4.1-4.1,4.1-10.8,0-14.8l-2.4-2.4
		c-3.1-3.1-7-5.2-11-6.2c-1.2-2-2.7-3.8-4.4-5.5l-16.9-16.9l4.9-4.9l16.9,16.9c1.8,1.8,3.8,3.4,5.9,4.6c1.1,3.8,3.1,7.5,6.1,10.5
		l2.4,2.4c4.1,4.1,10.8,4.1,14.8,0l38.1-38.1C324.6,249.8,324.6,243.1,320.5,239z M293.8,131.5c1.3,3.7,1.1,7.6-0.5,11.1l-8.5,17.9
		l-1.4,3l-1.3,2.7c-1.5,3.2-4.1,5.6-7.1,7c-0.3,0.1-0.7,0.3-1,0.4c-3.5,1.3-7.6,1.3-11.2-0.5l-10.3-4.9c-3.5-1.6-6.1-4.6-7.4-8.2
		c-0.2-0.5-0.3-0.9-0.4-1.4c-0.1-0.4-0.2-0.8-0.2-1.2c-0.5-2.9-0.1-5.8,1.2-8.4l1.2-2.6l0.5-1l9.5-20.1c0.7-1.5,1.7-2.9,2.8-4
		c1.5-1.5,3.3-2.7,5.4-3.4c3.7-1.3,7.6-1.1,11.1,0.5l10.3,4.9c1.2,0.6,2.3,1.3,3.3,2.1C291.5,127.1,292.9,129.1,293.8,131.5z
		 M209.5,86.8l62.1,29.3c-2.4-0.3-4.8,0-7.1,0.8c-3.9,1.4-7,4.2-8.8,8l-9.3,19.8l-0.5,1l-1.4,2.9c-1.2,2.6-1.7,5.5-1.4,8.4
		l-54.6-25.8c-3.8-1.8-6.9-4.5-9.3-7.8c6.3-13.7,8.6-25.9,6.1-34.7c0.1,0,0.1-0.1,0.2-0.1c0.3-0.2,0.7-0.4,1-0.6
		C193.4,83.9,201.9,83.2,209.5,86.8z M130.5,48.5l14.3,14.3c1.1,1.1,1.2,2.9,0.3,4.2c-0.1,0.1-0.2,0.3-0.3,0.4s-0.3,0.2-0.4,0.3
		c-1.3,0.9-3,0.8-4.2-0.3l-14.3-14.3c-1.1-1.1-1.2-2.9-0.3-4.2c0.1-0.1,0.2-0.3,0.3-0.4c0.1-0.1,0.3-0.2,0.4-0.3
		C127.6,47.3,129.4,47.4,130.5,48.5z M39.1,173c-0.1,0.1-0.3,0.2-0.4,0.3c-1.3,0.9-3,0.8-4.2-0.3l-14.3-14.3
		c-1.1-1.1-1.2-2.9-0.3-4.2c0.1-0.1,0.2-0.3,0.3-0.4c0.1-0.1,0.3-0.2,0.4-0.3c1.3-0.9,3-0.8,4.2,0.3l14.3,14.3
		c1.1,1.1,1.2,2.9,0.3,4.2C39.3,172.7,39.2,172.8,39.1,173z M43,176.1l-2.9-2.9c1.3-1.7,1.2-4.1-0.3-5.6l-14.3-14.3
		c-1.5-1.5-3.9-1.6-5.6-0.3c-0.4-0.4-0.9-0.8-1.3-1.2C-7,126.1-4.4,81.7,24.5,52.7c28.9-28.9,73.4-31.5,99.1-5.8
		c0.4,0.4,0.8,0.8,1.2,1.3c-1.3,1.7-1.2,4.1,0.3,5.6L139.5,68c1.5,1.5,3.9,1.6,5.6,0.3l2.9,2.9c1.7,1.7,3.3,3.6,4.7,5.5
		c0.2,0.3,0.4,0.5,0.6,0.8c0.5,0.8,1,1.6,1.5,2.4c0.2,0.3,0.4,0.7,0.6,1c9.4,16.9,7,38.6-7.3,52.9l-42.3,42.3c-14,14-35,16.6-51.7,8
		c-0.4-0.2-0.7-0.4-1.1-0.6c-1.1-0.6-2.2-1.3-3.2-2c-0.3-0.2-0.5-0.4-0.8-0.6C46.8,179.6,44.8,178,43,176.1z M53.6,207.8
		c-5.4-5.4-6.6-14.3-4.1-25.2c1.1,0.8,2.3,1.4,3.5,2.1c0.3,0.2,0.7,0.4,1.1,0.5c17,8.5,38.2,5.7,52.4-8.4l42.3-42.3
		c14.5-14.5,17.1-36.5,7.8-53.7c-0.2-0.3-0.4-0.7-0.6-1c-0.5-0.9-1.1-1.8-1.6-2.6c11.2-2.7,20.4-1.6,25.9,4c1.4,1.4,2.6,3.1,3.4,5
		c0.2,0.5,0.4,0.9,0.6,1.4c0.1,0.2,0.1,0.4,0.2,0.5c0.1,0.3,0.2,0.7,0.3,1c2.3,8.4,0.1,20.2-5.9,33.2c-0.2,0.4-0.3,0.7-0.5,1.1
		c-7.1,15.1-19,31.9-34.7,47.6c-15.5,15.5-32.2,27.4-47.1,34.5c-0.4,0.2-0.7,0.3-1.1,0.5c-7.9,3.7-16.6,6.7-25.5,7
		c-1.5,0-3.1,0-4.6-0.2c-1.6-0.2-3.2-0.5-4.6-1c-0.2-0.1-0.5-0.1-0.7-0.2C57.5,210.9,55.3,209.6,53.6,207.8z M59.5,236.9
		c-3.7-7.8-2.9-16.6,1.4-23.5c0.1-0.1,0.1-0.2,0.2-0.3c0.3,0.1,0.6,0.2,0.9,0.2c8.8,2.1,20.9-0.4,34.2-6.6c3.2,2.4,5.8,5.5,7.6,9.2
		l25.8,54.6c-2.8-0.3-5.7,0.1-8.4,1.4l-2.4,1.1l-1,0.5l-20.3,9.6c-3.7,1.8-6.6,4.9-8,8.8c-0.8,2.3-1.1,4.7-0.8,7.1L59.5,236.9z
		 M138.9,309.4l-2.7,1.3l-20.9,9.9c-6,2.8-13,1.2-17.1-3.6c-0.9-1-1.6-2.1-2.2-3.3l-4.9-10.3c-1.6-3.5-1.8-7.4-0.5-11.1
		c0.7-2.1,1.9-3.9,3.4-5.4c1.2-1.2,2.5-2.1,4-2.8l20.6-9.7l1-0.5l2.1-1c2.7-1.3,5.7-1.6,8.4-1.2c0.4,0.1,0.8,0.1,1.2,0.2
		c4.1,1,7.7,3.8,9.6,7.9l4.9,10.3c1.6,3.5,1.8,7.3,0.7,10.6c-0.1,0.3-0.2,0.7-0.4,1C144.8,305,142.3,307.8,138.9,309.4z M253.4,286
		c3.5,1.1,6.8,3,9.5,5.7l2.4,2.4c3.7,3.7,3.7,9.7,0,13.4l-38.1,38.1c-3.7,3.7-9.7,3.7-13.4,0l-2.4-2.4c-2.5-2.5-4.3-5.4-5.4-8.5
		c-0.2-0.5-0.3-0.9-0.5-1.4c-2.2-7.8-0.3-16.5,5.8-22.6l19-19c5.9-5.9,14.1-7.9,21.6-6.1C252.4,285.8,252.9,285.9,253.4,286z
		 M247.5,280c1.4,1.4,2.6,2.9,3.7,4.5c-7.6-1.5-15.7,0.7-21.5,6.6l-19,19c-6.1,6.1-8.2,14.7-6.3,22.6c-1.8-1.2-3.6-2.6-5.2-4.2
		l-17-17l-0.7-0.7l-5.6-5.6c-12.1-12.1-12.1-31.8,0-43.8l4.6-4.6c12.1-12.1,31.8-12.1,43.8,0l5.7,5.7l0.7,0.7L247.5,280z
		 M230.6,261.7L225,256c-12.5-12.5-32.8-12.5-45.3,0l-4.6,4.6c-12.5,12.5-12.5,32.8,0,45.3l5.4,5.4c-7.8,5.5-18.7,4.8-25.7-2.2
		l-7.6-7.6c1.3-3.7,1.3-8-0.6-11.9l-4.9-10.3c-2.2-4.6-6.4-7.7-11.1-8.6l-26.1-55.2c-1.7-3.7-4.3-6.8-7.5-9.3
		c15-7.2,31.5-19,46.9-34.4c15.6-15.6,27.5-32.3,34.7-47.4c2.4,3.2,5.6,5.9,9.4,7.6l55.2,26.1c0.2,0.8,0.3,1.5,0.6,2.3
		c1.4,3.9,4.2,7,8,8.8l10.3,4.9c4.1,1.9,8.5,1.9,12.4,0.3l7.4,7.4c6.7,6.7,7.6,17,2.8,24.8l-5.3-5.3c-12.5-12.5-32.8-12.5-45.3,0
		l-4.6,4.6c-12.5,12.5-12.5,32.8,0,45.3l5.7,5.7L230.6,261.7z M253.8,273.7l-16.9-16.9l-0.7-0.7l-5.7-5.7
		c-12.1-12.1-12.1-31.8,0-43.8l4.6-4.6c12.1-12.1,31.8-12.1,43.8,0l5.4,5.4l0.7,0.7l17.1,17.1c1.5,1.5,2.8,3.1,4,4.8
		c-7.7-1.7-16.1,0.5-22.1,6.5l-19,19c-6,6-8.1,14.4-6.5,22.1C256.9,276.5,255.3,275.2,253.8,273.7z M319.8,253.2l-38.1,38.1
		c-3.7,3.7-9.7,3.7-13.4,0l-2.4-2.4c-2.6-2.6-4.5-5.7-5.5-9c-0.2-0.5-0.3-0.9-0.4-1.4c-2-7.7,0-16.1,5.9-22.1l19-19
		c6-6,14.5-8,22.1-5.9c0.5,0.1,0.9,0.3,1.4,0.4c3.3,1.1,6.4,2.9,9,5.5l2.4,2.4C323.5,243.4,323.5,249.5,319.8,253.2z"/>
</g>
</svg>
