<?xml version="1.0" encoding="utf-8"?>
<!-- Generator: Adobe Illustrator 22.1.0, SVG Export Plug-In . SVG Version: 6.00 Build 0)  -->
<svg version="1.1" id="Layer_1" xmlns="http://www.w3.org/2000/svg" xmlns:xlink="http://www.w3.org/1999/xlink" x="0px" y="0px"
	 viewBox="0 0 162 161.6" style="enable-background:new 0 0 162 161.6;" xml:space="preserve">
<style type="text/css">
	.st0{fill:#FFDE9F;}
	.st1{fill:#FFC760;}
	.st2{fill:#FFF1D8;}
	.st3{fill:#FFAE27;}
	.st4{fill:#FF9400;}
</style>
<circle class="st0" cx="81.2" cy="80.8" r="80.8"/>
<g>
	<g>
		<path class="st1" d="M0.9,68.9C0.3,72.7,0,76.7,0,80.8c0,17.2,5.3,33.1,14.5,46.1c1.5-2.4,4.1-4,7.1-4c4.6,0,8.4,3.8,8.4,8.4
			c0,3.5-2.1,6.5-5.1,7.8c14.5,14,34.2,22.5,56,22.5c30,0,56-16.3,69.9-40.4C72.7,122.2,26.9,95.3,0.9,68.9z"/>
		<path class="st0" d="M150.7,121.2c6.9-11.9,10.9-25.7,10.9-40.4c0-0.7,0-1.3,0-2.1c-73,0.4-117.5-23.5-143.8-48.5
			C9,41.1,3.1,54.4,0.9,68.9C26.9,95.3,72.7,122.2,150.7,121.2z"/>
		<path class="st2" d="M161.5,78.7C160.4,35.1,124.6,0,80.7,0c-25.6,0-48.3,11.9-63,30.3C44.1,55.2,88.4,79.2,161.5,78.7z"/>
		<path class="st0" d="M30,131.3c0-4.6-3.8-8.4-8.4-8.4c-3.1,0-5.6,1.6-7.1,4c3.1,4.4,6.5,8.4,10.3,12C27.8,137.8,30,134.9,30,131.3
			z"/>
	</g>
	<circle class="st0" cx="125.6" cy="48.2" r="10"/>
	<circle class="st3" cx="69.2" cy="64.1" r="13.4"/>
	<circle class="st1" cx="51.4" cy="33.6" r="3.2"/>
	<circle class="st1" cx="14.5" cy="62.6" r="2.4"/>
	<circle class="st1" cx="74" cy="59.5" r="2.4"/>
	<circle class="st2" cx="131.9" cy="105" r="3.5"/>
	<circle class="st4" cx="33.3" cy="93.7" r="4.6"/>
</g>
</svg>
